<?xml version="1.0" encoding="UTF-8"?>
<!DOCTYPE svg PUBLIC "-//W3C//DTD SVG 1.1//EN" "http://www.w3.org/Graphics/SVG/1.1/DTD/svg11.dtd">
<svg version="1.1" xmlns="http://www.w3.org/2000/svg" xmlns:xlink="http://www.w3.org/1999/xlink" x="0" y="0" width="32" height="32" viewBox="0, 0, 32, 32">
  <g id="Layer_1">
    <g>
      <path d="M2.482,16.18 C1.398,16.748 1.443,17.58 2.58,18.032 L5.944,19.363 C7.081,19.812 8.8,19.567 9.765,18.813 L24.377,7.29 C25.338,6.533 25.441,6.645 24.606,7.539 L13.054,19.903 C12.217,20.795 12.464,21.887 13.604,22.328 L13.998,22.482 C15.138,22.922 16.998,23.664 18.13,24.124 L21.862,25.645 C22.995,26.105 23.922,26.487 23.924,26.494 C23.925,26.501 23.93,26.522 23.936,26.524 C23.942,26.526 24.209,25.562 24.53,24.383 L30.218,3.475 C30.539,2.295 29.916,1.794 28.833,2.362 L2.482,16.18 z" fill="#AEB6BF"/>
      <path d="M11.717,29.865 C11.65,30.064 14.018,26.436 14.018,26.436 C14.687,25.414 14.308,24.195 13.176,23.733 L10.594,22.675 C9.462,22.212 8.92,22.755 9.389,23.887 C9.389,23.888 11.785,29.661 11.717,29.865 z" fill="#AEB6BF"/>
    </g>
  </g>
</svg>
